# xmcd CD database file
#
# Track frame offsets:
#	150
#	20032
#	33987
#	48127
#	62345
#	78472
#	94580
#	109707
#	123257
#	141335
#	155302
#	166410
#	182930
#	194262
#	207247
#	221812
#	236670
#	249392
#	262447
#	274117
#	286085
#	300825
#
# Disc length: 4282 seconds
#
# Revision: 0
# Processed by: cddbd v1.5.2PL0 Copyright (c) Steve Scherf et al.
# Submitted via: CDex 1.70beta2
#
DISCID=3710b816
DTITLE=ChartBreakers - ChartBreakers CGC-544
DYEAR=1900
DGENRE=Country
TTITLE0=Kenny Rogers - Sweet Music Man
TTITLE1=John Anderson - Swingin'
TTITLE2=Emmylou Harris - Two More Bottles Of Wine
TTITLE3=Remingtons - Two-Timin' Me
TTITLE4=Ed Bruce - You're The Best Break This Old Heart Ever Had
TTITLE5=Don Williams - That's The Thing About Love
TTITLE6=Johnny Lee - You Could've Heard A Heart Break
TTITLE7=Barbara Mandrell - In Times Like These
TTITLE8=John Conlee - Working Man
TTITLE9=Merle Haggard - I Had A Beautiful Time
TTITLE10=Nitty Gritty Dirt Band - Baby's Got A Hold On Me
TTITLE11=George Strait - Famous Words Of A Fool
TTITLE12=Vern Gosdin - Set 'Em Up Joe
TTITLE13=Glen Campbell - She's Gone, Gone, Gone
TTITLE14=George Strait - Overnight Success
TTITLE15=Oak Ridge Boys - Dream On
TTITLE16=Reba McEntire - I'm Not That Lonely Yet
TTITLE17=Terri Gibbs - Somebody's Knockin'
TTITLE18=Oak Ridge Boys - Thank God For Kids
TTITLE19=Chris LeDoux and Garth Brooks - Whatcha Gonna Do With A Cowboy
TTITLE20=Charley Pride - Burgers And Fries
TTITLE21=Merle Haggard - I Think I'll Just Stay Here And Drink
EXTD=YEAR: 1900
EXTT0=
EXTT1=
EXTT2=
EXTT3=
EXTT4=
EXTT5=
EXTT6=
EXTT7=
EXTT8=
EXTT9=
EXTT10=
EXTT11=
EXTT12=
EXTT13=
EXTT14=
EXTT15=
EXTT16=
EXTT17=
EXTT18=
EXTT19=
EXTT20=
EXTT21=
PLAYORDER=
